<?xml version="1.0" standalone="no"?>
<!DOCTYPE svg PUBLIC "-//W3C//DTD SVG 20010904//EN"
 "http://www.w3.org/TR/2001/REC-SVG-20010904/DTD/svg10.dtd">
<svg version="1.0" xmlns="http://www.w3.org/2000/svg"
 width="512.000000pt" height="512.000000pt" viewBox="0 0 512.000000 512.000000"
 preserveAspectRatio="xMidYMid meet">

<g transform="translate(0.000000,512.000000) scale(0.100000,-0.100000)"
fill="#000000" stroke="none">
<path d="M3923 5105 c-222 -48 -407 -216 -478 -435 l-22 -65 -894 -127 c-845
-121 -895 -127 -907 -111 -73 103 -98 131 -147 173 -75 63 -152 104 -250 131
-100 27 -254 23 -355 -10 -190 -61 -352 -224 -413 -416 -31 -100 -31 -280 0
-380 41 -129 149 -273 258 -342 34 -21 43 -32 40 -48 -3 -11 -55 -319 -115
-685 -61 -365 -112 -665 -113 -666 -1 -1 -29 -9 -62 -19 -401 -115 -586 -576
-375 -935 114 -194 320 -312 545 -312 177 -1 323 59 446 181 42 42 81 85 87
96 10 19 53 10 1334 -274 728 -162 1328 -296 1334 -298 6 -2 17 -32 25 -66 21
-102 88 -222 167 -302 121 -122 253 -183 416 -192 378 -21 698 297 672 667
-11 153 -57 270 -148 377 -80 95 -156 145 -318 210 l-25 10 -144 1299 c-78
715 -145 1308 -147 1319 -3 16 11 30 67 65 98 62 171 145 224 255 51 106 65
166 65 278 0 176 -59 316 -185 443 -63 64 -98 90 -165 123 -138 67 -278 86
-417 56z m249 -451 c161 -113 97 -366 -97 -382 -193 -16 -308 202 -182 345 47
53 99 74 174 70 50 -2 71 -9 105 -33z m-3017 -409 c67 -27 125 -115 125 -190
0 -42 -29 -116 -58 -149 -26 -30 -113 -66 -157 -66 -45 0 -109 27 -143 59 -79
77 -88 202 -21 284 64 78 159 101 254 62z m2370 -119 c74 -111 219 -220 343
-257 23 -7 42 -17 42 -23 0 -6 66 -600 146 -1321 134 -1205 144 -1311 129
-1320 -98 -59 -141 -94 -210 -178 l-40 -47 -1330 295 c-731 163 -1330 297
-1331 298 0 1 -8 33 -17 70 -35 143 -121 274 -238 359 -38 28 -69 52 -69 55 0
7 220 1328 225 1349 3 16 15 24 42 29 86 16 207 82 290 158 65 59 137 173 164
260 l23 74 870 125 c479 69 883 126 898 127 22 1 33 -9 63 -53z m-2780 -2450
c122 -66 141 -244 35 -340 -144 -130 -364 -16 -348 179 13 152 175 236 313
161z m3848 -858 c22 -14 51 -43 65 -65 23 -33 27 -48 27 -113 0 -65 -4 -80
-27 -113 -14 -22 -43 -51 -65 -65 -33 -23 -48 -27 -113 -27 -65 0 -80 4 -113
27 -61 41 -91 93 -95 164 -6 92 36 165 120 208 51 26 152 18 201 -16z"/>
</g>
</svg>
